<svg xmlns="http://www.w3.org/2000/svg" style="display:none" aria-hidden="true">
  <symbol id="bjj-guard" viewBox="0 0 24 24" fill="none" stroke="currentColor"
          stroke-width="2" stroke-linecap="round" stroke-linejoin="round">
    <title>Guard</title>
    <circle cx="12" cy="6.4" r="2.8" />
    <path d="M3 18.75h10.5" />
    <path d="M12 8.8v9.95" />
    <path d="M11 18.75C14.5 16.25 18.5 15 18.5 10.75" />
  </symbol>,  <symbol id="bjj-mount" viewBox="0 0 24 24" fill="none" stroke="currentColor"
          stroke-width="2" stroke-linecap="round" stroke-linejoin="round">
    <title>Ghim & Mount</title>
    <circle cx="12" cy="6.6" r="2.8" />
    <path d="M2.5 18.75h19" />
    <path d="M12 9.2v4.3" />
    <path d="M8 13.5h8" />
  </symbol>,  <symbol id="bjj-backTake" viewBox="0 0 24 24" fill="none" stroke="currentColor"
          stroke-width="2" stroke-linecap="round" stroke-linejoin="round">
    <title>Back take</title>
    <circle cx="11" cy="7.8" r="2.8" />
    <path d="M11 10.4v4.6" />
    <path d="M8 20C8.2 17.2 9.3 15 11 15C12.7 15 13.8 17.2 14 20" />
    <path d="M17.6 6.2C20.8 9.2 20.8 14 18.6 15.6M18.6 15.6l-2.4-1.2M18.6 15.6l-0.9-2.6" />
  </symbol>,  <symbol id="bjj-hook" viewBox="0 0 24 24" fill="none" stroke="currentColor"
          stroke-width="2" stroke-linecap="round" stroke-linejoin="round">
    <title>Hook / móc chân</title>
    <path d="M11.25 8.25h8.75" />
    <path d="M6.75 4.5v8.5C6.75 15.8 8.6 17.25 11.25 17.25" />
  </symbol>,  <symbol id="bjj-grip" viewBox="0 0 24 24" fill="none" stroke="currentColor"
          stroke-width="2" stroke-linecap="round" stroke-linejoin="round">
    <title>Grip / khoá tay</title>
    <path d="M8 3h8" />
    <path d="M6.75 8.5v5C6.75 15.5 8.25 17 9.75 17" />
    <path d="M17.25 8.5v5C17.25 15.5 15.75 17 14.25 17" />
  </symbol>,  <symbol id="bjj-choke" viewBox="0 0 24 24" fill="none" stroke="currentColor"
          stroke-width="2" stroke-linecap="round" stroke-linejoin="round">
    <title>Siết cổ</title>
    <circle cx="9.75" cy="4.8" r="2.8" />
    <path d="M9.75 7.2v11.55" />
    <path d="M15.6 8.4C18.6 10.2 19 14 15.8 16.6" />
  </symbol>,  <symbol id="bjj-legLock" viewBox="0 0 24 24" fill="none" stroke="currentColor"
          stroke-width="2" stroke-linecap="round" stroke-linejoin="round">
    <title>Leg lock / đường gối</title>
    <path d="M5.25 5.25v6.75h5.25" />
    <path d="M13.25 8.25h2.5C17.35 8.25 18.4 10 18.4 12C18.4 14 17.35 15.75 16 15.75h-2.5" />
  </symbol>,  <symbol id="bjj-chain" viewBox="0 0 24 24" fill="none" stroke="currentColor"
          stroke-width="2" stroke-linecap="round" stroke-linejoin="round">
    <title>Chuỗi submission</title>
    <circle cx="8" cy="16" r="3.2" />
    <circle cx="16" cy="8" r="3.2" />
    <path d="M10.6 13.4L13.4 10.6" />
  </symbol>,  <symbol id="bjj-escape" viewBox="0 0 24 24" fill="none" stroke="currentColor"
          stroke-width="2" stroke-linecap="round" stroke-linejoin="round">
    <title>Thoát hiểm (bridge)</title>
    <path d="M3.5 18.75C6.5 12.75 17.5 12.75 20.5 18.75" />
    <path d="M12 10.25V6.6M9.4 9.2L12 6.6L14.6 9.2" />
  </symbol>,  <symbol id="bjj-frame" viewBox="0 0 24 24" fill="none" stroke="currentColor"
          stroke-width="2" stroke-linecap="round" stroke-linejoin="round">
    <title>Khung chặn (frame)</title>
    <path d="M5 20L12 12.5L19 20" />
    <path d="M6.5 9C9 7.4 15 7.4 17.5 9" />
  </symbol>,  <symbol id="bjj-takedown" viewBox="0 0 24 24" fill="none" stroke="currentColor"
          stroke-width="2" stroke-linecap="round" stroke-linejoin="round">
    <title>Vật & takedown</title>
    <circle cx="15.5" cy="6.4" r="2.8" />
    <path d="M15.2 8.8L11.5 12.5" />
    <path d="M11.5 12.5L9.5 18.75" />
    <path d="M3 18.75h18" />
  </symbol>,  <symbol id="bjj-tap" viewBox="0 0 24 24" fill="none" stroke="currentColor"
          stroke-width="2" stroke-linecap="round" stroke-linejoin="round">
    <title>An toàn & tap</title>
    <path d="M6.75 13V9" />
    <path d="M11.25 13V8.5" />
    <path d="M15.75 13V9.5" />
    <path d="M5.45 13.5C5.45 17.25 7.75 18.75 11.25 18.75C14.75 18.75 17.05 17.25 17.05 13.5" />
  </symbol>,  <symbol id="bjj-brand" viewBox="0 0 24 24" fill="none" stroke="currentColor"
          stroke-width="2.4" stroke-linecap="round" stroke-linejoin="round">
    <title>NoGiMind</title>
    <path d="M7.4 17.2V6.8l9.2 10.4V6.8" />
  </symbol>
</svg>
